HIERARCHY
ROOT hip
{
  OFFSET 0 0 0
  CHANNELS 6 Xposition Yposition Zposition Zrotation Yrotation Xrotation
  JOINT abdomen
  {
    OFFSET 0 20.6881 -0.73152
    CHANNELS 3 Zrotation Xrotation Yrotation
    JOINT chest
    {
      OFFSET 0 11.7043 -0.48768
      CHANNELS 3 Zrotation Xrotation Yrotation
      JOINT neck
      {
        OFFSET 0 22.1894 -2.19456
        CHANNELS 3 Zrotation Xrotation Yrotation
        JOINT head
        {
          OFFSET -0.24384 7.07133 1.2192
          CHANNELS 3 Zrotation Xrotation Yrotation
          JOINT leftEye
          {
            OFFSET 4.14528 8.04674 8.04672
            CHANNELS 3 Zrotation Xrotation Yrotation
            End Site
            {
              OFFSET 1 0 0
            }
          }
          JOINT rightEye
          {
            OFFSET -3.6576 8.04674 8.04672
            CHANNELS 3 Zrotation Xrotation Yrotation
            End Site
            {
              OFFSET 1 0 0
            }
          }
        }
      }
      JOINT rCollar
      {
        OFFSET -2.68224 19.2634 -4.8768
        CHANNELS 3 Zrotation Xrotation Yrotation
        JOINT rShldr
        {
          OFFSET -8.77824 -1.95073 1.46304
          CHANNELS 3 Zrotation Xrotation Yrotation
          JOINT rForeArm
          {
            OFFSET -28.1742 -1.7115 0.48768
            CHANNELS 3 Zrotation Xrotation Yrotation
            JOINT rHand
            {
              OFFSET -22.5879 0.773209 7.07136
              CHANNELS 3 Zrotation Xrotation Yrotation
              JOINT rThumb1
              {
                OFFSET -1.2192 -0.487915 3.41376
                CHANNELS 3 Zrotation Xrotation Yrotation
                JOINT rThumb2
                {
                  OFFSET -3.37035 -0.52449 3.41376
                  CHANNELS 3 Zrotation Xrotation Yrotation
                  End Site
                  {
                    OFFSET -1.78271 -1.18214 1.43049
                  }
                }
              }
              JOINT rIndex1
              {
                OFFSET -7.75947 0.938293 5.60832
                CHANNELS 3 Zrotation Xrotation Yrotation
                JOINT rIndex2
                {
                  OFFSET -2.54057 -0.884171 1.56538
                  CHANNELS 3 Zrotation Xrotation Yrotation
                  End Site
                  {
                    OFFSET -1.62519 -0.234802 1.16502
                  }
                }
              }
              JOINT rMid1
              {
                OFFSET -8.24714 1.18213 3.41376
                CHANNELS 3 Zrotation Xrotation Yrotation
                JOINT rMid2
                {
                  OFFSET -3.10165 -0.590103 1.0647
                  CHANNELS 3 Zrotation Xrotation Yrotation
                  End Site
                  {
                    OFFSET -2.48547 -0.328903 0.83742
                  }
                }
              }
              JOINT rRing1
              {
                OFFSET -8.82822 0.546677 1.51678
                CHANNELS 3 Zrotation Xrotation Yrotation
                JOINT rRing2
                {
                  OFFSET -2.60934 -0.819778 -0.0198488
                  CHANNELS 3 Zrotation Xrotation Yrotation
                  End Site
                  {
                    OFFSET -2.33842 -0.294052 0.168128
                  }
                }
              }
              JOINT rPinky1
              {
                OFFSET -8.27202 -0.0477905 -0.4584
                CHANNELS 3 Zrotation Xrotation Yrotation
                JOINT rPinky2
                {
                  OFFSET -1.82734 -0.647385 -0.700984
                  CHANNELS 3 Zrotation Xrotation Yrotation
                  End Site
                  {
                    OFFSET -1.69225 -0.51767 -0.607171
                  }
                }
              }
            }
          }
        }
      }
      JOINT lCollar
      {
        OFFSET 2.68224 19.2634 -4.8768
        CHANNELS 3 Zrotation Xrotation Yrotation
        JOINT lShldr
        {
          OFFSET 8.77824 -1.95073 1.46304
          CHANNELS 3 Zrotation Xrotation Yrotation
          JOINT lForeArm
          {
            OFFSET 28.1742 -1.7115 0.48768
            CHANNELS 3 Zrotation Xrotation Yrotation
            JOINT lHand
            {
              OFFSET 22.5879 0.773209 7.07136
              CHANNELS 3 Zrotation Xrotation Yrotation
              JOINT lThumb1
              {
                OFFSET 1.2192 -0.487915 3.41376
                CHANNELS 3 Zrotation Xrotation Yrotation
                JOINT lThumb2
                {
                  OFFSET 3.37035 -0.52449 3.41376
                  CHANNELS 3 Zrotation Xrotation Yrotation
                  End Site
                  {
                    OFFSET 1.78271 -1.18214 1.43049
                  }
                }
              }
              JOINT lIndex1
              {
                OFFSET 7.75947 0.938293 5.60832
                CHANNELS 3 Zrotation Xrotation Yrotation
                JOINT lIndex2
                {
                  OFFSET 2.54057 -0.884171 1.56538
                  CHANNELS 3 Zrotation Xrotation Yrotation
                  End Site
                  {
                    OFFSET 1.62519 -0.234802 1.16502
                  }
                }
              }
              JOINT lMid1
              {
                OFFSET 8.24714 1.18213 3.41376
                CHANNELS 3 Zrotation Xrotation Yrotation
                JOINT lMid2
                {
                  OFFSET 3.10165 -0.590103 1.0647
                  CHANNELS 3 Zrotation Xrotation Yrotation
                  End Site
                  {
                    OFFSET 2.48547 -0.328903 0.83742
                  }
                }
              }
              JOINT lRing1
              {
                OFFSET 8.82822 0.546677 1.51678
                CHANNELS 3 Zrotation Xrotation Yrotation
                JOINT lRing2
                {
                  OFFSET 2.60934 -0.819778 -0.0198488
                  CHANNELS 3 Zrotation Xrotation Yrotation
                  End Site
                  {
                    OFFSET 2.33842 -0.294052 0.168128
                  }
                }
              }
              JOINT lPinky1
              {
                OFFSET 8.27202 -0.0477905 -0.4584
                CHANNELS 3 Zrotation Xrotation Yrotation
                JOINT lPinky2
                {
                  OFFSET 1.82734 -0.647385 -0.700984
                  CHANNELS 3 Zrotation Xrotation Yrotation
                  End Site
                  {
                    OFFSET 1.69225 -0.51767 -0.607171
                  }
                }
              }
            }
          }
        }
      }
    }
  }
  JOINT rButtock
  {
    OFFSET -8.77824 4.35084 1.2192
    CHANNELS 3 Zrotation Xrotation Yrotation
    JOINT rThigh
    {
      OFFSET 0 -1.70687 -2.19456
      CHANNELS 3 Zrotation Xrotation Yrotation
      JOINT rShin
      {
        OFFSET 0 -36.8199 0.73152
        CHANNELS 3 Zrotation Xrotation Yrotation
        JOINT rFoot
        {
          OFFSET 0.73152 -45.1104 -5.12064
          CHANNELS 3 Zrotation Xrotation Yrotation
          End Site
          {
            OFFSET -1.1221 -3.69964 12.103
          }
        }
      }
    }
  }
  JOINT lButtock
  {
    OFFSET 8.77824 4.35084 1.2192
    CHANNELS 3 Zrotation Xrotation Yrotation
    JOINT lThigh
    {
      OFFSET 0 -1.70687 -2.19456
      CHANNELS 3 Zrotation Xrotation Yrotation
      JOINT lShin
      {
        OFFSET 0 -36.8199 0.73152
        CHANNELS 3 Zrotation Xrotation Yrotation
        JOINT lFoot
        {
          OFFSET -0.73152 -45.1104 -5.12064
          CHANNELS 3 Zrotation Xrotation Yrotation
          End Site
          {
            OFFSET 1.1221 -3.69964 12.103
          }
        }
      }
    }
  }
}
MOTION
Frames:	8
Frame Time:	0.00833333
-94.6596 85.1887 -1.1946 0.0 0.0 0.0 0.55935 -0.00286671 0.0159888 0.154366 -0.00442833 0.026746 1.95309e-14 -7.95139e-16 -9.93924e-17 5.9039e-14 3.18055e-15 -2.98177e-16 -0.0 0.0 0.0 -0.0 0.0 0.0 9.83884e-15 1.94126e-19 4.96962e-17 2.09146e-13 5.09386e-16 3.97569e-16 3.55785e-12 -1.06111e-12 -6.04305e-14 4.06828e-11 1.06362e-12 -1.20861e-13 9.59724e-11 -4.36197e-15 -3.84847e-13 1.65737e-10 -1.59028e-14 -6.89385e-13 9.59804e-11 -1.98785e-15 -3.94389e-13 7.73091 5.47488 0.417314 9.59733e-11 -4.07509e-15 -3.88028e-13 2.90554 0.965183 0.102902 9.59805e-11 -4.07509e-15 -3.92799e-13 10.2786 0.731801 0.0259123 9.59713e-11 -4.37326e-15 -3.91208e-13 2.22167 -0.733487 -0.20892 9.84149e-15 5.82377e-19 -1.49089e-16 2.03653e-13 4.9075e-16 -1.59028e-15 3.55596e-12 1.0627e-12 -2.8625e-14 4.06934e-11 -1.07374e-12 -1.49486e-13 9.59908e-11 -3.59274e-14 -4.0075e-13 1.65778e-10 -6.36111e-14 -6.79048e-13 9.5984e-11 -3.22031e-14 -3.84847e-13 -7.73091 5.47488 -0.417314 9.59894e-11 -3.598e-14 -4.0075e-13 -2.90554 0.965183 -0.102902 9.59727e-11 -3.49861e-14 -3.92003e-13 -10.2786 0.731801 -0.0259123 9.59969e-11 -3.45885e-14 -3.94389e-13 -2.22167 -0.733487 0.20892 -2.03217e-16 0.0 -3.88251e-19 0.92301 -4.50512 -0.0770322 -0.00206841 2.60853 -0.00963072 -0.502478 1.89677 0.0959442 2.03217e-16 0.0 3.88251e-19 -0.0712301 -2.35216 0.0224554 0.00807184 -1.29119 0.0691975 0.4946 3.64342 -0.130516
-92.7069 84.0213 -4.06064 -76.009 85.8041 -63.6656 1.67056 -3.1821 1.70317 0.0944767 1.39433 0.478754 -0.866326 2.57357 -0.989508 2.02272 -5.08959 -1.51899 -0.0 0.0 0.0 -0.0 0.0 0.0 -6.10631e-14 -1.11956e-12 -2.86995e-14 23.8281 19.8045 -0.668514 -24.6422 -22.4701 14.5227 0.0883948 -6.60745 -0.906514 1.68032e-10 1.76018e-09 1.72037e-09 2.55909e-10 3.04094e-09 2.97711e-09 1.6804e-10 1.76018e-09 1.72037e-09 7.73091 5.47488 0.417314 1.68033e-10 1.76018e-09 1.72037e-09 2.90554 0.965183 0.102902 1.68039e-10 1.76018e-09 1.72037e-09 10.2786 0.731801 0.0259123 1.68032e-10 1.76018e-09 1.72037e-09 2.22167 -0.733487 -0.20892 -6.11097e-14 -1.11956e-12 -2.88812e-14 -22.8615 21.2274 -1.96 25.0398 -22.8421 -14.4118 -0.0405998 -4.47236 0.621654 -6.34612e-11 3.46104e-09 -2.76245e-09 -7.59026e-11 5.99269e-09 -4.77731e-09 -6.3466e-11 3.46105e-09 -2.76244e-09 -7.73091 5.47488 -0.417314 -6.34614e-11 3.46104e-09 -2.76245e-09 -2.90554 0.965183 -0.102902 -6.34762e-11 3.46104e-09 -2.76244e-09 -10.2786 0.731801 -0.0259123 -6.34553e-11 3.46104e-09 -2.76245e-09 -2.22167 -0.733487 0.20892 -2.03217e-16 0.0 -3.88251e-19 -0.287974 -12.2513 1.25725 0.000242639 7.60636 0.0826585 -0.785026 -0.632499 -3.85032 2.03217e-16 0.0 3.88251e-19 1.1866 -6.35885 1.95916 0.00107072 2.11602 0.00114364 0.444866 -0.705161 0.0443033
-92.9937 83.958 -4.29624 -74.4379 85.7552 -62.0309 3.0551 -6.53644 3.51093 0.00880242 2.8632 0.959316 -1.70057 5.30882 -2.03387 3.9001 -10.4917 -3.14061 -0.0 0.0 0.0 -0.0 0.0 0.0 -1.41875e-13 -2.40608e-12 -6.04554e-14 49.6537 40.7428 -1.69449 -35.4563 -40.8842 37.7381 -0.0517221 -13.6147 -1.90971 2.45816e-10 3.70455e-09 3.63472e-09 3.52088e-10 6.40007e-09 6.2899e-09 2.45822e-10 3.70454e-09 3.63472e-09 7.73091 5.47488 0.417314 2.45816e-10 3.70454e-09 3.63472e-09 2.90554 0.965183 0.102902 2.45821e-10 3.70455e-09 3.63472e-09 10.2786 0.731801 0.0259123 2.45816e-10 3.70455e-09 3.63472e-09 2.22167 -0.733487 -0.20892 -1.41974e-13 -2.40608e-12 -6.06169e-14 -44.9169 43.5681 -5.17978 35.9671 -41.6197 -37.8096 0.0232874 -9.2048 1.29243 -2.40536e-10 7.34629e-09 -5.85782e-09 -3.44e-10 1.27198e-08 -1.01303e-08 -2.40538e-10 7.34629e-09 -5.8578e-09 -7.73091 5.47488 -0.417314 -2.40535e-10 7.34629e-09 -5.85781e-09 -2.90554 0.965183 -0.102902 -2.40547e-10 7.34629e-09 -5.85781e-09 -10.2786 0.731801 -0.0259123 -2.4053e-10 7.34629e-09 -5.85782e-09 -2.22167 -0.733487 0.20892 -2.03217e-16 0.0 -3.88251e-19 -1.1563 -20.4043 2.82849 -0.0152168 12.8189 0.181807 -1.45791 -3.25692 -8.03739 2.03217e-16 0.0 3.88251e-19 2.81693 -10.5698 4.05021 0.00260351 5.71255 -0.0708121 0.423004 -5.30303 0.242316
-93.2847 83.8947 -4.53594 -72.1983 85.7062 -59.7037 4.46052 -9.50709 5.14043 -0.0916567 4.19077 1.38605 -2.33036 7.71145 -2.99262 5.23449 -15.225 -4.70446 -0.0 0.0 0.0 -0.0 0.0 0.0 -2.02867e-13 -3.35869e-12 -8.6198e-14 73.9937 59.3646 -3.70484 -31.0995 -45.6449 67.3968 -0.39532 -19.8019 -2.87139 3.12152e-10 5.28056e-09 5.16189e-09 4.36253e-10 9.12285e-09 8.93271e-09 3.12158e-10 5.28056e-09 5.16189e-09 7.73091 5.47488 0.417314 3.12152e-10 5.28056e-09 5.16188e-09 2.90554 0.965183 0.102902 3.12156e-10 5.28056e-09 5.16189e-09 10.2786 0.731801 0.0259123 3.12154e-10 5.28056e-09 5.16189e-09 2.22167 -0.733487 -0.20892 -2.03012e-13 -3.35869e-12 -8.63455e-14 -59.7686 63.1906 -12.2262 31.1525 -46.4265 -68.1667 0.176239 -13.4107 1.91142 -3.82365e-10 1.03832e-08 -8.28655e-09 -5.59265e-10 1.79782e-08 -1.43306e-08 -3.82366e-10 1.03832e-08 -8.28654e-09 -7.73091 5.47488 -0.417314 -3.82363e-10 1.03832e-08 -8.28655e-09 -2.90554 0.965183 -0.102902 -3.82374e-10 1.03832e-08 -8.28655e-09 -10.2786 0.731801 -0.0259123 -3.8236e-10 1.03832e-08 -8.28655e-09 -2.22167 -0.733487 0.20892 -2.03217e-16 0.0 -3.88251e-19 -1.50466 -27.6847 4.33669 -0.0455191 17.6018 0.278053 -2.39147 -5.57577 -11.7987 2.03217e-16 0.0 3.88251e-19 4.53648 -14.3082 5.98265 0.0115168 8.93042 -0.136587 0.425494 -9.40212 0.39876
-93.5384 83.8466 -4.75961 -71.5209 85.7138 -59.0119 5.51106 -11.551 6.2636 -0.182487 5.16609 1.67518 -2.63874 9.29109 -3.71409 5.79716 -18.3258 -5.98415 -0.0 0.0 0.0 -0.0 0.0 0.0 -2.14308e-13 -3.47656e-12 -9.69075e-14 93.7223 72.2079 -7.74843 -27.9269 -40.7837 85.3379 -0.759957 -23.9587 -3.58054 3.49874e-10 5.93571e-09 5.72109e-09 4.90383e-10 1.02548e-08 9.90054e-09 3.49878e-10 5.93571e-09 5.72109e-09 7.73091 5.47488 0.417314 3.49873e-10 5.93571e-09 5.72108e-09 2.90554 0.965183 0.102902 3.49877e-10 5.93571e-09 5.72109e-09 10.2786 0.731801 0.0259123 3.49875e-10 5.93571e-09 5.72109e-09 2.22167 -0.733487 -0.20892 -2.14484e-13 -3.47656e-12 -9.70566e-14 -57.9242 76.0122 -28.9912 27.7967 -41.3738 -86.4207 0.33763 -16.3063 2.35631 -4.36083e-10 1.12993e-08 -9.0487e-09 -6.42448e-10 1.95651e-08 -1.5649e-08 -4.36082e-10 1.12993e-08 -9.04869e-09 -7.73091 5.47488 -0.417314 -4.3608e-10 1.12993e-08 -9.04869e-09 -2.90554 0.965183 -0.102902 -4.36089e-10 1.12993e-08 -9.0487e-09 -10.2786 0.731801 -0.0259123 -4.36077e-10 1.12993e-08 -9.04871e-09 -2.22167 -0.733487 0.20892 -2.03217e-16 0.0 -3.88251e-19 -1.50375 -32.8469 5.29143 -0.0794527 21.3107 0.358335 -3.25551 -7.24526 -14.4362 2.03217e-16 0.0 3.88251e-19 5.88571 -16.9236 7.3849 0.0218214 11.2016 -0.185097 0.422868 -12.2546 0.443496
-93.7487 83.8377 -4.94689 -74.014 85.6778 -61.472 5.87911 -12.3245 6.6292 -0.244777 5.65961 1.76806 -2.54865 9.69604 -4.09496 5.47206 -19.1272 -6.79708 -0.0 0.0 0.0 -0.0 0.0 0.0 -1.40732e-13 -2.13308e-12 -8.57472e-14 104.12 77.0094 -11.9358 -27.8854 -37.5603 90.4464 -0.906462 -25.2446 -3.81579 3.65954e-10 5.27449e-09 4.81996e-09 5.36793e-10 9.11275e-09 8.34144e-09 3.65957e-10 5.27449e-09 4.81995e-09 7.73091 5.47488 0.417314 3.65954e-10 5.27449e-09 4.81995e-09 2.90554 0.965183 0.102902 3.65957e-10 5.2745e-09 4.81995e-09 10.2786 0.731801 0.0259123 3.65954e-10 5.2745e-09 4.81996e-09 2.22167 -0.733487 -0.20892 -1.40921e-13 -2.13308e-12 -8.59266e-14 -45.2093 80.0693 -47.4371 27.7704 -38.0485 -91.5251 0.409395 -17.3528 2.52211 -3.51067e-10 8.81954e-09 -7.16944e-09 -5.17696e-10 1.52738e-08 -1.24e-08 -3.51065e-10 8.81955e-09 -7.16943e-09 -7.73091 5.47488 -0.417314 -3.51063e-10 8.81954e-09 -7.16943e-09 -2.90554 0.965183 -0.102902 -3.51072e-10 8.81954e-09 -7.16944e-09 -10.2786 0.731801 -0.0259123 -3.51062e-10 8.81954e-09 -7.16945e-09 -2.22167 -0.733487 0.20892 -2.03217e-16 0.0 -3.88251e-19 -1.55063 -35.1158 5.13213 -0.102537 23.5062 0.410738 -3.71434 -8.11727 -15.4715 2.03217e-16 0.0 3.88251e-19 6.43349 -18.0212 7.97141 0.0262732 12.153 -0.208183 0.377885 -13.3655 0.303623
-93.852 83.8239 -5.04202 -77.9129 85.5826 -65.5594 5.71872 -12.1964 6.44223 -0.281197 5.80868 1.72014 -2.19769 9.2653 -4.2275 4.60277 -18.2992 -7.24141 -0.0 0.0 0.0 -0.0 0.0 0.0 -7.17443e-15 2.40272e-13 -5.90049e-14 103.571 76.1818 -11.9979 -27.8527 -37.9513 89.9502 -0.842265 -24.4858 -3.68271 3.657e-10 3.67431e-09 2.88074e-09 5.76055e-10 6.34875e-09 4.98604e-09 3.65701e-10 3.67431e-09 2.88072e-09 7.73091 5.47488 0.417314 3.65699e-10 3.67431e-09 2.88074e-09 2.90554 0.965183 0.102902 3.65703e-10 3.67431e-09 2.88074e-09 10.2786 0.731801 0.0259123 3.65697e-10 3.67431e-09 2.88075e-09 2.22167 -0.733487 -0.20892 -7.36216e-15 2.40272e-13 -5.92347e-14 -46.2171 79.6635 -45.7417 27.7422 -38.4193 -90.9635 0.39358 -17.0808 2.47942 -1.67688e-10 3.93458e-09 -3.41813e-09 -2.45516e-10 6.81898e-09 -5.914e-09 -1.67685e-10 3.93458e-09 -3.41813e-09 -7.73091 5.47488 -0.417314 -1.67685e-10 3.93458e-09 -3.41813e-09 -2.90554 0.965183 -0.102902 -1.67692e-10 3.93458e-09 -3.41814e-09 -10.2786 0.731801 -0.0259123 -1.67683e-10 3.93458e-09 -3.41814e-09 -2.22167 -0.733487 0.20892 -2.03217e-16 0.0 -3.88251e-19 -1.74472 -35.3192 4.09712 -0.113143 24.6215 0.440986 -3.80245 -8.44566 -15.3465 2.03217e-16 0.0 3.88251e-19 6.34048 -18.0462 7.94772 0.0245522 12.1614 -0.212583 0.301654 -13.232 0.0321337
-93.8316 83.7684 -4.9369 -82.4965 85.1357 -70.568 5.35265 -11.7003 6.04498 -0.29756 5.80295 1.61818 -1.79986 8.54635 -4.24826 3.68082 -16.8904 -7.48111 -0.0 0.0 0.0 -0.0 0.0 0.0 1.25341e-13 2.55727e-12 -2.73473e-14 98.4633 73.1428 -10.2652 -27.8264 -39.7959 87.2161 -0.709682 -22.9781 -3.42045 3.29438e-10 1.74199e-09 6.94573e-10 5.57531e-10 3.01063e-09 1.20329e-09 3.29438e-10 1.74198e-09 6.9454e-10 7.73091 5.47488 0.417314 3.29437e-10 1.74199e-09 6.9457e-10 2.90554 0.965183 0.102902 3.29441e-10 1.74199e-09 6.9457e-10 10.2786 0.731801 0.0259123 3.29432e-10 1.74199e-09 6.94578e-10 2.22167 -0.733487 -0.20892 1.25164e-13 2.55727e-12 -2.76245e-14 -52.8519 77.5166 -35.8711 27.7171 -40.2679 -88.1389 0.345585 -16.3119 2.35866 3.04343e-11 -1.22992e-09 5.88887e-10 4.88037e-11 -2.12053e-09 1.01443e-09 3.04368e-11 -1.22992e-09 5.88884e-10 -7.73091 5.47488 -0.417314 3.04373e-11 -1.22993e-09 5.8889e-10 -2.90554 0.965183 -0.102902 3.04298e-11 -1.22992e-09 5.88879e-10 -10.2786 0.731801 -0.0259123 3.04384e-11 -1.22992e-09 5.88871e-10 -2.22167 -0.733487 0.20892 -2.03217e-16 0.0 -3.88251e-19 -1.92227 -34.6379 2.79445 -0.117842 25.3199 0.46108 -3.71444 -8.51756 -14.7281 2.03217e-16 0.0 3.88251e-19 5.99881 -17.6207 7.65287 0.0201953 11.7839 -0.209021 0.230568 -12.5951 -0.25587
